ply
format ascii 1.0
comment VCGLIB generated
element vertex 1089
property float x
property float y
property float z
element face 2048
property list uchar int vertex_indices
end_header
0.9375 -0.9375 0 
1 -1 0 
0.9375 -1 0 
-0.0625 -0.9375 0 
0 -1 0 
-0.0625 -1 0 
-0.0625 0.0625 0 
0 0 0.075 
-0.0625 0 0 
0.9375 0.0625 0 
1 0 0 
0.9375 0 0 
0.4375 0.0625 0 
0.5 0 0.075 
0.4375 0 0 
0.4375 0.5625 0 
0.5 0.5 0.075 
0.4375 0.5 0 
0.9375 0.5625 0 
1 0.5 0 
0.9375 0.5 0 
-0.5625 0.0625 0 
-0.5 0 0.075 
-0.5625 0 0 
-0.5625 0.5625 0 
-0.5 0.5 0.075 
-0.5625 0.5 0 
-0.0625 0.5625 0 
0 0.5 0.075 
-0.0625 0.5 0 
-0.5625 -0.9375 0 
-0.5 -1 0 
-0.5625 -1 0 
-0.5625 -0.4375 0 
-0.5 -0.5 0.075 
-0.5625 -0.5 0 
-0.0625 -0.4375 0 
0 -0.5 0.075 
-0.0625 -0.5 0 
0.4375 -0.9375 0 
0.5 -1 0 
0.4375 -1 0 
0.4375 -0.4375 0 
0.5 -0.5 0.075 
0.4375 -0.5 0 
0.9375 -0.4375 0 
1 -0.5 0 
0.9375 -0.5 0 
0.6875 -0.4375 0 
0.75 -0.5 0.075 
0.6875 -0.5 0 
0.6875 -0.1875 0 
0.75 -0.25 0.075 
0.6875 -0.25 0 
0.9375 -0.1875 0 
1 -0.25 0 
0.9375 -0.25 0 
0.1875 -0.4375 0 
0.25 -0.5 0.075 
0.1875 -0.5 0 
0.1875 -0.1875 0 
0.25 -0.25 0.075 
0.1875 -0.25 0 
0.4375 -0.1875 0 
0.5 -0.25 0.075 
0.4375 -0.25 0 
0.1875 -0.9375 0 
0.25 -1 0 
0.1875 -1 0 
0.1875 -0.6875 0 
0.25 -0.75 0.075 
0.1875 -0.75 0 
0.4375 -0.6875 0 
0.5 -0.75 0.075 
0.4375 -0.75 0 
-0.3125 -0.4375 0 
-0.25 -0.5 0.075 
-0.3125 -0.5 0 
-0.3125 -0.1875 0 
-0.25 -0.25 0.075 
-0.3125 -0.25 0 
-0.0625 -0.1875 0 
0 -0.25 0.075 
-0.0625 -0.25 0 
-0.8125 -0.4375 0 
-0.75 -0.5 0.075 
-0.8125 -0.5 0 
-0.8125 -0.1875 0 
-0.75 -0.25 0.075 
-0.8125 -0.25 0 
-0.5625 -0.1875 0 
-0.5 -0.25 0.075 
-0.5625 -0.25 0 
-0.8125 -0.9375 0 
-0.75 -1 0 
-0.8125 -1 0 
-0.8125 -0.6875 0 
-0.75 -0.75 0.075 
-0.8125 -0.75 0 
-0.5625 -0.6875 0 
-0.5 -0.75 0.075 
-0.5625 -0.75 0 
-0.3125 0.5625 0 
-0.25 0.5 0.075 
-0.3125 0.5 0 
-0.3125 0.8125 0 
-0.25 0.75 0.075 
-0.3125 0.75 0 
-0.0625 0.8125 0 
0 0.75 0.075 
-0.0625 0.75 0 
-0.8125 0.5625 0 
-0.75 0.5 0.075 
-0.8125 0.5 0 
-0.8125 0.8125 0 
-0.75 0.75 0.075 
-0.8125 0.75 0 
-0.5625 0.8125 0 
-0.5 0.75 0.075 
-0.5625 0.75 0 
-0.8125 0.0625 0 
-0.75 0 0.075 
-0.8125 0 0 
-0.8125 0.3125 0 
-0.75 0.25 0.075 
-0.8125 0.25 0 
-0.5625 0.3125 0 
-0.5 0.25 0.075 
-0.5625 0.25 0 
0.6875 0.5625 0 
0.75 0.5 0.075 
0.6875 0.5 0 
0.6875 0.8125 0 
0.75 0.75 0.075 
0.6875 0.75 0 
0.9375 0.8125 0 
1 0.75 0 
0.9375 0.75 0 
0.1875 0.5625 0 
0.25 0.5 0.075 
0.1875 0.5 0 
0.1875 0.8125 0 
0.25 0.75 0.075 
0.1875 0.75 0 
0.4375 0.8125 0 
0.5 0.75 0.075 
0.4375 0.75 0 
0.1875 0.0625 0 
0.25 0 0.075 
0.1875 0 0 
0.1875 0.3125 0 
0.25 0.25 0.075 
0.1875 0.25 0 
0.4375 0.3125 0 
0.5 0.25 0.075 
0.4375 0.25 0 
0.6875 0.0625 0 
0.75 0 0.075 
0.6875 0 0 
0.6875 0.3125 0 
0.75 0.25 0.075 
0.6875 0.25 0 
0.9375 0.3125 0 
1 0.25 0 
0.9375 0.25 0 
-0.3125 0.0625 0 
-0.25 0 0.075 
-0.3125 0 0 
-0.3125 0.3125 0 
-0.25 0.25 0.075 
-0.3125 0.25 0 
-0.0625 0.3125 0 
0 0.25 0.075 
-0.0625 0.25 0 
-0.3125 -0.9375 0 
-0.25 -1 0 
-0.3125 -1 0 
-0.3125 -0.6875 0 
-0.25 -0.75 0.075 
-0.3125 -0.75 0 
-0.0625 -0.6875 0 
0 -0.75 0.075 
-0.0625 -0.75 0 
0.6875 -0.9375 0 
0.75 -1 0 
0.6875 -1 0 
0.6875 -0.6875 0 
0.75 -0.75 0.075 
0.6875 -0.75 0 
0.9375 -0.6875 0 
1 -0.75 0 
0.9375 -0.75 0 
0.8125 -0.6875 0 
0.875 -0.75 0 
0.8125 -0.75 0 
0.8125 -0.5625 0 
0.875 -0.625 0 
0.8125 -0.625 0 
0.9375 -0.5625 0 
1 -0.625 0 
0.9375 -0.625 0 
0.5625 -0.6875 0 
0.625 -0.75 0 
0.5625 -0.75 0 
0.5625 -0.5625 0 
0.625 -0.625 0 
0.5625 -0.625 0 
0.6875 -0.5625 0 
0.75 -0.625 0 
0.6875 -0.625 0 
0.5625 -0.9375 0 
0.625 -1 0 
0.5625 -1 0 
0.5625 -0.8125 0 
0.625 -0.875 0 
0.5625 -0.875 0 
0.6875 -0.8125 0 
0.75 -0.875 0 
0.6875 -0.875 0 
-0.1875 -0.6875 0 
-0.125 -0.75 0 
-0.1875 -0.75 0 
-0.1875 -0.5625 0 
-0.125 -0.625 0 
-0.1875 -0.625 0 
-0.0625 -0.5625 0 
0 -0.625 0 
-0.0625 -0.625 0 
-0.4375 -0.6875 0 
-0.375 -0.75 0 
-0.4375 -0.75 0 
-0.4375 -0.5625 0 
-0.375 -0.625 0 
-0.4375 -0.625 0 
-0.3125 -0.5625 0 
-0.25 -0.625 0 
-0.3125 -0.625 0 
-0.4375 -0.9375 0 
-0.375 -1 0 
-0.4375 -1 0 
-0.4375 -0.8125 0 
-0.375 -0.875 0 
-0.4375 -0.875 0 
-0.3125 -0.8125 0 
-0.25 -0.875 0 
-0.3125 -0.875 0 
-0.1875 0.3125 0 
-0.125 0.25 0 
-0.1875 0.25 0 
-0.1875 0.4375 0 
-0.125 0.375 0 
-0.1875 0.375 0 
-0.0625 0.4375 0 
0 0.375 0 
-0.0625 0.375 0 
-0.4375 0.3125 0 
-0.375 0.25 0 
-0.4375 0.25 0 
-0.4375 0.4375 0 
-0.375 0.375 0 
-0.4375 0.375 0 
-0.3125 0.4375 0 
-0.25 0.375 0 
-0.3125 0.375 0 
-0.4375 0.0625 0 
-0.375 0 0 
-0.4375 0 0 
-0.4375 0.1875 0 
-0.375 0.125 0 
-0.4375 0.125 0 
-0.3125 0.1875 0 
-0.25 0.125 0 
-0.3125 0.125 0 
0.8125 0.3125 0 
0.875 0.25 0 
0.8125 0.25 0 
0.8125 0.4375 0 
0.875 0.375 0 
0.8125 0.375 0 
0.9375 0.4375 0 
1 0.375 0 
0.9375 0.375 0 
0.5625 0.3125 0 
0.625 0.25 0 
0.5625 0.25 0 
0.5625 0.4375 0 
0.625 0.375 0 
0.5625 0.375 0 
0.6875 0.4375 0 
0.75 0.375 0 
0.6875 0.375 0 
0.5625 0.0625 0 
0.625 0 0 
0.5625 0 0 
0.5625 0.1875 0 
0.625 0.125 0 
0.5625 0.125 0 
0.6875 0.1875 0 
0.75 0.125 0 
0.6875 0.125 0 
0.3125 0.3125 0 
0.375 0.25 0 
0.3125 0.25 0 
0.3125 0.4375 0 
0.375 0.375 0 
0.3125 0.375 0 
0.4375 0.4375 0 
0.5 0.375 0 
0.4375 0.375 0 
0.0625 0.3125 0 
0.125 0.25 0 
0.0625 0.25 0 
0.0625 0.4375 0 
0.125 0.375 0 
0.0625 0.375 0 
0.1875 0.4375 0 
0.25 0.375 0 
0.1875 0.375 0 
0.0625 0.0625 0 
0.125 0 0 
0.0625 0 0 
0.0625 0.1875 0 
0.125 0.125 0 
0.0625 0.125 0 
0.1875 0.1875 0 
0.25 0.125 0 
0.1875 0.125 0 
0.3125 0.8125 0 
0.375 0.75 0 
0.3125 0.75 0 
0.3125 0.9375 0 
0.375 0.875 0 
0.3125 0.875 0 
0.4375 0.9375 0 
0.5 0.875 0 
0.4375 0.875 0 
0.0625 0.8125 0 
0.125 0.75 0 
0.0625 0.75 0 
0.0625 0.9375 0 
0.125 0.875 0 
0.0625 0.875 0 
0.1875 0.9375 0 
0.25 0.875 0 
0.1875 0.875 0 
0.0625 0.5625 0 
0.125 0.5 0 
0.0625 0.5 0 
0.0625 0.6875 0 
0.125 0.625 0 
0.0625 0.625 0 
0.1875 0.6875 0 
0.25 0.625 0 
0.1875 0.625 0 
0.8125 0.8125 0 
0.875 0.75 0 
0.8125 0.75 0 
0.8125 0.9375 0 
0.875 0.875 0 
0.8125 0.875 0 
0.9375 0.9375 0 
1 0.875 0 
0.9375 0.875 0 
0.5625 0.8125 0 
0.625 0.75 0 
0.5625 0.75 0 
0.5625 0.9375 0 
0.625 0.875 0 
0.5625 0.875 0 
0.6875 0.9375 0 
0.75 0.875 0 
0.6875 0.875 0 
0.5625 0.5625 0 
0.625 0.5 0 
0.5625 0.5 0 
0.5625 0.6875 0 
0.625 0.625 0 
0.5625 0.625 0 
0.6875 0.6875 0 
0.75 0.625 0 
0.6875 0.625 0 
-0.6875 0.3125 0 
-0.625 0.25 0 
-0.6875 0.25 0 
-0.6875 0.4375 0 
-0.625 0.375 0 
-0.6875 0.375 0 
-0.5625 0.4375 0 
-0.5 0.375 0 
-0.5625 0.375 0 
-0.9375 0.3125 0 
-0.875 0.25 0 
-0.9375 0.25 0 
-0.9375 0.4375 0 
-0.875 0.375 0 
-0.9375 0.375 0 
-0.8125 0.4375 0 
-0.75 0.375 0 
-0.8125 0.375 0 
-0.9375 0.0625 0 
-0.875 0 0 
-0.9375 0 0 
-0.9375 0.1875 0 
-0.875 0.125 0 
-0.9375 0.125 0 
-0.8125 0.1875 0 
-0.75 0.125 0 
-0.8125 0.125 0 
-0.6875 0.8125 0 
-0.625 0.75 0 
-0.6875 0.75 0 
-0.6875 0.9375 0 
-0.625 0.875 0 
-0.6875 0.875 0 
-0.5625 0.9375 0 
-0.5 0.875 0 
-0.5625 0.875 0 
-0.9375 0.8125 0 
-0.875 0.75 0 
-0.9375 0.75 0 
-0.9375 0.9375 0 
-0.875 0.875 0 
-0.9375 0.875 0 
-0.8125 0.9375 0 
-0.75 0.875 0 
-0.8125 0.875 0 
-0.9375 0.5625 0 
-0.875 0.5 0 
-0.9375 0.5 0 
-0.9375 0.6875 0 
-0.875 0.625 0 
-0.9375 0.625 0 
-0.8125 0.6875 0 
-0.75 0.625 0 
-0.8125 0.625 0 
-0.1875 0.8125 0 
-0.125 0.75 0 
-0.1875 0.75 0 
-0.1875 0.9375 0 
-0.125 0.875 0 
-0.1875 0.875 0 
-0.0625 0.9375 0 
0 0.875 0 
-0.0625 0.875 0 
-0.4375 0.8125 0 
-0.375 0.75 0 
-0.4375 0.75 0 
-0.4375 0.9375 0 
-0.375 0.875 0 
-0.4375 0.875 0 
-0.3125 0.9375 0 
-0.25 0.875 0 
-0.3125 0.875 0 
-0.4375 0.5625 0 
-0.375 0.5 0 
-0.4375 0.5 0 
-0.4375 0.6875 0 
-0.375 0.625 0 
-0.4375 0.625 0 
-0.3125 0.6875 0 
-0.25 0.625 0 
-0.3125 0.625 0 
-0.6875 -0.6875 0 
-0.625 -0.75 0 
-0.6875 -0.75 0 
-0.6875 -0.5625 0 
-0.625 -0.625 0 
-0.6875 -0.625 0 
-0.5625 -0.5625 0 
-0.5 -0.625 0 
-0.5625 -0.625 0 
-0.9375 -0.6875 0 
-0.875 -0.75 0 
-0.9375 -0.75 0 
-0.9375 -0.5625 0 
-0.875 -0.625 0 
-0.9375 -0.625 0 
-0.8125 -0.5625 0 
-0.75 -0.625 0 
-0.8125 -0.625 0 
-0.9375 -0.9375 0 
-0.875 -1 0 
-0.9375 -1 0 
-0.9375 -0.8125 0 
-0.875 -0.875 0 
-0.9375 -0.875 0 
-0.8125 -0.8125 0 
-0.75 -0.875 0 
-0.8125 -0.875 0 
-0.6875 -0.1875 0 
-0.625 -0.25 0 
-0.6875 -0.25 0 
-0.6875 -0.0625 0 
-0.625 -0.125 0 
-0.6875 -0.125 0 
-0.5625 -0.0625 0 
-0.5 -0.125 0 
-0.5625 -0.125 0 
-0.9375 -0.1875 0 
-0.875 -0.25 0 
-0.9375 -0.25 0 
-0.9375 -0.0625 0 
-0.875 -0.125 0 
-0.9375 -0.125 0 
-0.8125 -0.0625 0 
-0.75 -0.125 0 
-0.8125 -0.125 0 
-0.9375 -0.4375 0 
-0.875 -0.5 0 
-0.9375 -0.5 0 
-0.9375 -0.3125 0 
-0.875 -0.375 0 
-0.9375 -0.375 0 
-0.8125 -0.3125 0 
-0.75 -0.375 0 
-0.8125 -0.375 0 
-0.1875 -0.1875 0 
-0.125 -0.25 0 
-0.1875 -0.25 0 
-0.1875 -0.0625 0 
-0.125 -0.125 0 
-0.1875 -0.125 0 
-0.0625 -0.0625 0 
0 -0.125 0 
-0.0625 -0.125 0 
-0.4375 -0.1875 0 
-0.375 -0.25 0 
-0.4375 -0.25 0 
-0.4375 -0.0625 0 
-0.375 -0.125 0 
-0.4375 -0.125 0 
-0.3125 -0.0625 0 
-0.25 -0.125 0 
-0.3125 -0.125 0 
-0.4375 -0.4375 0 
-0.375 -0.5 0 
-0.4375 -0.5 0 
-0.4375 -0.3125 0 
-0.375 -0.375 0 
-0.4375 -0.375 0 
-0.3125 -0.3125 0 
-0.25 -0.375 0 
-0.3125 -0.375 0 
0.3125 -0.6875 0 
0.375 -0.75 0 
0.3125 -0.75 0 
0.3125 -0.5625 0 
0.375 -0.625 0 
0.3125 -0.625 0 
0.4375 -0.5625 0 
0.5 -0.625 0 
0.4375 -0.625 0 
0.0625 -0.6875 0 
0.125 -0.75 0 
0.0625 -0.75 0 
0.0625 -0.5625 0 
0.125 -0.625 0 
0.0625 -0.625 0 
0.1875 -0.5625 0 
0.25 -0.625 0 
0.1875 -0.625 0 
0.0625 -0.9375 0 
0.125 -1 0 
0.0625 -1 0 
0.0625 -0.8125 0 
0.125 -0.875 0 
0.0625 -0.875 0 
0.1875 -0.8125 0 
0.25 -0.875 0 
0.1875 -0.875 0 
0.3125 -0.1875 0 
0.375 -0.25 0 
0.3125 -0.25 0 
0.3125 -0.0625 0 
0.375 -0.125 0 
0.3125 -0.125 0 
0.4375 -0.0625 0 
0.5 -0.125 0 
0.4375 -0.125 0 
0.0625 -0.1875 0 
0.125 -0.25 0 
0.0625 -0.25 0 
0.0625 -0.0625 0 
0.125 -0.125 0 
0.0625 -0.125 0 
0.1875 -0.0625 0 
0.25 -0.125 0 
0.1875 -0.125 0 
0.0625 -0.4375 0 
0.125 -0.5 0 
0.0625 -0.5 0 
0.0625 -0.3125 0 
0.125 -0.375 0 
0.0625 -0.375 0 
0.1875 -0.3125 0 
0.25 -0.375 0 
0.1875 -0.375 0 
0.8125 -0.1875 0 
0.875 -0.25 0 
0.8125 -0.25 0 
0.8125 -0.0625 0 
0.875 -0.125 0 
0.8125 -0.125 0 
0.9375 -0.0625 0 
1 -0.125 0 
0.9375 -0.125 0 
0.5625 -0.1875 0 
0.625 -0.25 0 
0.5625 -0.25 0 
0.5625 -0.0625 0 
0.625 -0.125 0 
0.5625 -0.125 0 
0.6875 -0.0625 0 
0.75 -0.125 0 
0.6875 -0.125 0 
0.5625 -0.4375 0 
0.625 -0.5 0 
0.5625 -0.5 0 
0.5625 -0.3125 0 
0.625 -0.375 0 
0.5625 -0.375 0 
0.6875 -0.3125 0 
0.75 -0.375 0 
0.6875 -0.375 0 
0.8125 -0.4375 0 
0.875 -0.5 0 
0.8125 -0.5 0 
0.8125 -0.3125 0 
0.875 -0.375 0 
0.8125 -0.375 0 
0.9375 -0.3125 0 
1 -0.375 0 
0.9375 -0.375 0 
0.3125 -0.4375 0 
0.375 -0.5 0 
0.3125 -0.5 0 
0.3125 -0.3125 0 
0.375 -0.375 0 
0.3125 -0.375 0 
0.4375 -0.3125 0 
0.5 -0.375 0 
0.4375 -0.375 0 
0.3125 -0.9375 0 
0.375 -1 0 
0.3125 -1 0 
0.3125 -0.8125 0 
0.375 -0.875 0 
0.3125 -0.875 0 
0.4375 -0.8125 0 
0.5 -0.875 0 
0.4375 -0.875 0 
-0.1875 -0.4375 0 
-0.125 -0.5 0 
-0.1875 -0.5 0 
-0.1875 -0.3125 0 
-0.125 -0.375 0 
-0.1875 -0.375 0 
-0.0625 -0.3125 0 
0 -0.375 0 
-0.0625 -0.375 0 
-0.6875 -0.4375 0 
-0.625 -0.5 0 
-0.6875 -0.5 0 
-0.6875 -0.3125 0 
-0.625 -0.375 0 
-0.6875 -0.375 0 
-0.5625 -0.3125 0 
-0.5 -0.375 0 
-0.5625 -0.375 0 
-0.6875 -0.9375 0 
-0.625 -1 0 
-0.6875 -1 0 
-0.6875 -0.8125 0 
-0.625 -0.875 0 
-0.6875 -0.875 0 
-0.5625 -0.8125 0 
-0.5 -0.875 0 
-0.5625 -0.875 0 
-0.1875 0.5625 0 
-0.125 0.5 0 
-0.1875 0.5 0 
-0.1875 0.6875 0 
-0.125 0.625 0 
-0.1875 0.625 0 
-0.0625 0.6875 0 
0 0.625 0 
-0.0625 0.625 0 
-0.6875 0.5625 0 
-0.625 0.5 0 
-0.6875 0.5 0 
-0.6875 0.6875 0 
-0.625 0.625 0 
-0.6875 0.625 0 
-0.5625 0.6875 0 
-0.5 0.625 0 
-0.5625 0.625 0 
-0.6875 0.0625 0 
-0.625 0 0 
-0.6875 0 0 
-0.6875 0.1875 0 
-0.625 0.125 0 
-0.6875 0.125 0 
-0.5625 0.1875 0 
-0.5 0.125 0 
-0.5625 0.125 0 
0.8125 0.5625 0 
0.875 0.5 0 
0.8125 0.5 0 
0.8125 0.6875 0 
0.875 0.625 0 
0.8125 0.625 0 
0.9375 0.6875 0 
1 0.625 0 
0.9375 0.625 0 
0.3125 0.5625 0 
0.375 0.5 0 
0.3125 0.5 0 
0.3125 0.6875 0 
0.375 0.625 0 
0.3125 0.625 0 
0.4375 0.6875 0 
0.5 0.625 0 
0.4375 0.625 0 
0.3125 0.0625 0 
0.375 0 0 
0.3125 0 0 
0.3125 0.1875 0 
0.375 0.125 0 
0.3125 0.125 0 
0.4375 0.1875 0 
0.5 0.125 0 
0.4375 0.125 0 
0.8125 0.0625 0 
0.875 0 0 
0.8125 0 0 
0.8125 0.1875 0 
0.875 0.125 0 
0.8125 0.125 0 
0.9375 0.1875 0 
1 0.125 0 
0.9375 0.125 0 
-0.1875 0.0625 0 
-0.125 0 0 
-0.1875 0 0 
-0.1875 0.1875 0 
-0.125 0.125 0 
-0.1875 0.125 0 
-0.0625 0.1875 0 
0 0.125 0 
-0.0625 0.125 0 
-0.1875 -0.9375 0 
-0.125 -1 0 
-0.1875 -1 0 
-0.1875 -0.8125 0 
-0.125 -0.875 0 
-0.1875 -0.875 0 
-0.0625 -0.8125 0 
0 -0.875 0 
-0.0625 -0.875 0 
0.8125 -0.9375 0 
0.875 -1 0 
0.8125 -1 0 
0.8125 -0.8125 0 
0.875 -0.875 0 
0.8125 -0.875 0 
0.9375 -0.8125 0 
1 -0.875 0 
0.9375 -0.875 0 
0.875 -0.8125 0 
1 -0.8125 0 
0.75 -0.8125 0 
0.75 -0.9375 0 
0.875 -0.9375 0 
-0.125 -0.8125 0 
0 -0.8125 0 
-0.25 -0.8125 0 
-0.25 -0.9375 0 
-0.125 -0.9375 0 
-0.125 0.1875 0 
0 0.1875 0 
-0.25 0.1875 0 
-0.25 0.0625 0 
-0.125 0.0625 0 
0.875 0.1875 0 
1 0.1875 0 
0.75 0.1875 0 
0.75 0.0625 0 
0.875 0.0625 0 
0.375 0.1875 0 
0.5 0.1875 0 
0.25 0.1875 0 
0.25 0.0625 0 
0.375 0.0625 0 
0.375 0.6875 0 
0.5 0.6875 0 
0.25 0.6875 0 
0.25 0.5625 0 
0.375 0.5625 0 
0.875 0.6875 0 
1 0.6875 0 
0.75 0.6875 0 
0.75 0.5625 0 
0.875 0.5625 0 
-0.625 0.1875 0 
-0.5 0.1875 0 
-0.75 0.1875 0 
-0.75 0.0625 0 
-0.625 0.0625 0 
-0.625 0.6875 0 
-0.5 0.6875 0 
-0.75 0.6875 0 
-0.75 0.5625 0 
-0.625 0.5625 0 
-0.125 0.6875 0 
0 0.6875 0 
-0.25 0.6875 0 
-0.25 0.5625 0 
-0.125 0.5625 0 
-0.625 -0.8125 0 
-0.5 -0.8125 0 
-0.75 -0.8125 0 
-0.75 -0.9375 0 
-0.625 -0.9375 0 
-0.625 -0.3125 0 
-0.5 -0.3125 0 
-0.75 -0.3125 0 
-0.75 -0.4375 0 
-0.625 -0.4375 0 
-0.125 -0.3125 0 
0 -0.3125 0 
-0.25 -0.3125 0 
-0.25 -0.4375 0 
-0.125 -0.4375 0 
0.375 -0.8125 0 
0.5 -0.8125 0 
0.25 -0.8125 0 
0.25 -0.9375 0 
0.375 -0.9375 0 
0.375 -0.3125 0 
0.5 -0.3125 0 
0.25 -0.3125 0 
0.25 -0.4375 0 
0.375 -0.4375 0 
0.875 -0.3125 0 
1 -0.3125 0 
0.75 -0.3125 0 
0.75 -0.4375 0 
0.875 -0.4375 0 
0.625 -0.3125 0 
0.5 -0.4375 0 
0.625 -0.4375 0 
0.625 -0.0625 0 
0.75 -0.0625 0 
0.5 -0.0625 0 
0.5 -0.1875 0 
0.625 -0.1875 0 
0.875 -0.0625 0 
1 -0.0625 0 
0.75 -0.1875 0 
0.875 -0.1875 0 
0.125 -0.3125 0 
0 -0.4375 0 
0.125 -0.4375 0 
0.125 -0.0625 0 
0.25 -0.0625 0 
0 -0.0625 0 
0 -0.1875 0 
0.125 -0.1875 0 
0.375 -0.0625 0 
0.25 -0.1875 0 
0.375 -0.1875 0 
0.125 -0.8125 0 
0 -0.9375 0 
0.125 -0.9375 0 
0.125 -0.5625 0 
0.25 -0.5625 0 
0 -0.5625 0 
0 -0.6875 0 
0.125 -0.6875 0 
0.375 -0.5625 0 
0.5 -0.5625 0 
0.25 -0.6875 0 
0.375 -0.6875 0 
-0.375 -0.3125 0 
-0.5 -0.4375 0 
-0.375 -0.4375 0 
-0.375 -0.0625 0 
-0.25 -0.0625 0 
-0.5 -0.0625 0 
-0.5 -0.1875 0 
-0.375 -0.1875 0 
-0.125 -0.0625 0 
-0.25 -0.1875 0 
-0.125 -0.1875 0 
-0.875 -0.3125 0 
-1 -0.3125 0 
-1 -0.375 0 
-1 -0.25 0 
-1 -0.4375 0 
-1 -0.5 0 
-0.875 -0.4375 0 
-0.875 -0.0625 0 
-0.75 -0.0625 0 
-1 -0.0625 0 
-1 -0.125 0 
-1 0 0 
-1 -0.1875 0 
-0.875 -0.1875 0 
-0.625 -0.0625 0 
-0.75 -0.1875 0 
-0.625 -0.1875 0 
-0.875 -0.8125 0 
-1 -0.8125 0 
-1 -0.875 0 
-1 -0.75 0 
-1 -0.9375 0 
-1 -1 0 
-0.875 -0.9375 0 
-0.875 -0.5625 0 
-0.75 -0.5625 0 
-1 -0.5625 0 
-1 -0.625 0 
-1 -0.6875 0 
-0.875 -0.6875 0 
-0.625 -0.5625 0 
-0.5 -0.5625 0 
-0.75 -0.6875 0 
-0.625 -0.6875 0 
-0.375 0.6875 0 
-0.5 0.5625 0 
-0.375 0.5625 0 
-0.375 0.9375 0 
-0.375 1 0 
-0.3125 1 0 
-0.25 0.9375 0 
-0.5 0.9375 0 
-0.5 1 0 
-0.4375 1 0 
-0.5 0.8125 0 
-0.375 0.8125 0 
-0.125 0.9375 0 
-0.125 1 0 
-0.0625 1 0 
0 0.9375 0 
-0.25 1 0 
-0.1875 1 0 
-0.25 0.8125 0 
-0.125 0.8125 0 
-0.875 0.6875 0 
-1 0.6875 0 
-1 0.625 0 
-1 0.75 0 
-1 0.5625 0 
-1 0.5 0 
-0.875 0.5625 0 
-0.875 0.9375 0 
-0.875 1 0 
-0.8125 1 0 
-0.75 0.9375 0 
-1 0.9375 0 
-1 0.875 0 
-1 1 0 
-0.9375 1 0 
-1 0.8125 0 
-0.875 0.8125 0 
-0.625 0.9375 0 
-0.625 1 0 
-0.5625 1 0 
-0.75 1 0 
-0.6875 1 0 
-0.75 0.8125 0 
-0.625 0.8125 0 
-0.875 0.1875 0 
-1 0.1875 0 
-1 0.125 0 
-1 0.25 0 
-1 0.0625 0 
-0.875 0.0625 0 
-0.875 0.4375 0 
-0.75 0.4375 0 
-1 0.4375 0 
-1 0.375 0 
-1 0.3125 0 
-0.875 0.3125 0 
-0.625 0.4375 0 
-0.5 0.4375 0 
-0.75 0.3125 0 
-0.625 0.3125 0 
0.625 0.6875 0 
0.5 0.5625 0 
0.625 0.5625 0 
0.625 0.9375 0 
0.625 1 0 
0.6875 1 0 
0.75 0.9375 0 
0.5 0.9375 0 
0.5 1 0 
0.5625 1 0 
0.5 0.8125 0 
0.625 0.8125 0 
0.875 0.9375 0 
0.875 1 0 
0.9375 1 0 
1 0.9375 0 
0.75 1 0 
0.8125 1 0 
0.75 0.8125 0 
0.875 0.8125 0 
0.125 0.6875 0 
0 0.5625 0 
0.125 0.5625 0 
0.125 0.9375 0 
0.125 1 0 
0.1875 1 0 
0.25 0.9375 0 
0 1 0 
0.0625 1 0 
0 0.8125 0 
0.125 0.8125 0 
0.375 0.9375 0 
0.375 1 0 
0.4375 1 0 
0.25 1 0 
0.3125 1 0 
0.25 0.8125 0 
0.375 0.8125 0 
0.125 0.1875 0 
0 0.0625 0 
0.125 0.0625 0 
0.125 0.4375 0 
0.25 0.4375 0 
0 0.4375 0 
0 0.3125 0 
0.125 0.3125 0 
0.375 0.4375 0 
0.5 0.4375 0 
0.25 0.3125 0 
0.375 0.3125 0 
0.625 0.1875 0 
0.5 0.0625 0 
0.625 0.0625 0 
0.625 0.4375 0 
0.75 0.4375 0 
0.5 0.3125 0 
0.625 0.3125 0 
0.875 0.4375 0 
1 0.4375 0 
0.75 0.3125 0 
0.875 0.3125 0 
-0.375 0.1875 0 
-0.5 0.0625 0 
-0.375 0.0625 0 
-0.375 0.4375 0 
-0.25 0.4375 0 
-0.5 0.3125 0 
-0.375 0.3125 0 
-0.125 0.4375 0 
-0.25 0.3125 0 
-0.125 0.3125 0 
-0.375 -0.8125 0 
-0.5 -0.9375 0 
-0.375 -0.9375 0 
-0.375 -0.5625 0 
-0.25 -0.5625 0 
-0.5 -0.6875 0 
-0.375 -0.6875 0 
-0.125 -0.5625 0 
-0.25 -0.6875 0 
-0.125 -0.6875 0 
0.625 -0.8125 0 
0.5 -0.9375 0 
0.625 -0.9375 0 
0.625 -0.5625 0 
0.75 -0.5625 0 
0.5 -0.6875 0 
0.625 -0.6875 0 
0.875 -0.5625 0 
1 -0.5625 0 
0.75 -0.6875 0 
0.875 -0.6875 0 
1 -0.6875 0 
1 0.3125 0 
1 0.8125 0 
1 -0.1875 0 
1 -0.4375 0 
1 0.5625 0 
1 0.0625 0 
1 -0.9375 0 
1 1 0 
3 1 0 2 
3 4 3 5 
3 7 6 8 
3 10 9 11 
3 13 12 14 
3 16 15 17 
3 19 18 20 
3 22 21 23 
3 25 24 26 
3 28 27 29 
3 31 30 32 
3 34 33 35 
3 37 36 38 
3 40 39 41 
3 43 42 44 
3 46 45 47 
3 49 48 50 
3 52 51 53 
3 55 54 56 
3 58 57 59 
3 61 60 62 
3 64 63 65 
3 67 66 68 
3 70 69 71 
3 73 72 74 
3 76 75 77 
3 79 78 80 
3 82 81 83 
3 85 84 86 
3 88 87 89 
3 91 90 92 
3 94 93 95 
3 97 96 98 
3 100 99 101 
3 103 102 104 
3 106 105 107 
3 109 108 110 
3 112 111 113 
3 115 114 116 
3 118 117 119 
3 121 120 122 
3 124 123 125 
3 127 126 128 
3 130 129 131 
3 133 132 134 
3 136 135 137 
3 139 138 140 
3 142 141 143 
3 145 144 146 
3 148 147 149 
3 151 150 152 
3 154 153 155 
3 157 156 158 
3 160 159 161 
3 163 162 164 
3 166 165 167 
3 169 168 170 
3 172 171 173 
3 175 174 176 
3 178 177 179 
3 181 180 182 
3 184 183 185 
3 187 186 188 
3 190 189 191 
3 193 192 194 
3 196 195 197 
3 199 198 200 
3 202 201 203 
3 205 204 206 
3 208 207 209 
3 211 210 212 
3 214 213 215 
3 217 216 218 
3 220 219 221 
3 223 222 224 
3 226 225 227 
3 229 228 230 
3 232 231 233 
3 235 234 236 
3 238 237 239 
3 241 240 242 
3 244 243 245 
3 247 246 248 
3 250 249 251 
3 253 252 254 
3 256 255 257 
3 259 258 260 
3 262 261 263 
3 265 264 266 
3 268 267 269 
3 271 270 272 
3 274 273 275 
3 277 276 278 
3 280 279 281 
3 283 282 284 
3 286 285 287 
3 289 288 290 
3 292 291 293 
3 295 294 296 
3 298 297 299 
3 301 300 302 
3 304 303 305 
3 307 306 308 
3 310 309 311 
3 313 312 314 
3 316 315 317 
3 319 318 320 
3 322 321 323 
3 325 324 326 
3 328 327 329 
3 331 330 332 
3 334 333 335 
3 337 336 338 
3 340 339 341 
3 343 342 344 
3 346 345 347 
3 349 348 350 
3 352 351 353 
3 355 354 356 
3 358 357 359 
3 361 360 362 
3 364 363 365 
3 367 366 368 
3 370 369 371 
3 373 372 374 
3 376 375 377 
3 379 378 380 
3 382 381 383 
3 385 384 386 
3 388 387 389 
3 391 390 392 
3 394 393 395 
3 397 396 398 
3 400 399 401 
3 403 402 404 
3 406 405 407 
3 409 408 410 
3 412 411 413 
3 415 414 416 
3 418 417 419 
3 421 420 422 
3 424 423 425 
3 427 426 428 
3 430 429 431 
3 433 432 434 
3 436 435 437 
3 439 438 440 
3 442 441 443 
3 445 444 446 
3 448 447 449 
3 451 450 452 
3 454 453 455 
3 457 456 458 
3 460 459 461 
3 463 462 464 
3 466 465 467 
3 469 468 470 
3 472 471 473 
3 475 474 476 
3 478 477 479 
3 481 480 482 
3 484 483 485 
3 487 486 488 
3 490 489 491 
3 493 492 494 
3 496 495 497 
3 499 498 500 
3 502 501 503 
3 505 504 506 
3 508 507 509 
3 511 510 512 
3 514 513 515 
3 517 516 518 
3 520 519 521 
3 523 522 524 
3 526 525 527 
3 529 528 530 
3 532 531 533 
3 535 534 536 
3 538 537 539 
3 541 540 542 
3 544 543 545 
3 547 546 548 
3 550 549 551 
3 553 552 554 
3 556 555 557 
3 559 558 560 
3 562 561 563 
3 565 564 566 
3 568 567 569 
3 571 570 572 
3 574 573 575 
3 577 576 578 
3 580 579 581 
3 583 582 584 
3 586 585 587 
3 589 588 590 
3 592 591 593 
3 595 594 596 
3 598 597 599 
3 601 600 602 
3 604 603 605 
3 607 606 608 
3 610 609 611 
3 613 612 614 
3 616 615 617 
3 619 618 620 
3 622 621 623 
3 625 624 626 
3 628 627 629 
3 631 630 632 
3 634 633 635 
3 637 636 638 
3 640 639 641 
3 643 642 644 
3 646 645 647 
3 649 648 650 
3 652 651 653 
3 655 654 656 
3 658 657 659 
3 661 660 662 
3 664 663 665 
3 667 666 668 
3 670 669 671 
3 673 672 674 
3 676 675 677 
3 679 678 680 
3 682 681 683 
3 685 684 686 
3 688 687 689 
3 691 690 692 
3 694 693 695 
3 697 696 698 
3 700 699 701 
3 703 702 704 
3 706 705 707 
3 709 708 710 
3 712 711 713 
3 715 714 716 
3 718 717 719 
3 721 720 722 
3 724 723 725 
3 727 726 728 
3 730 729 731 
3 733 732 734 
3 736 735 737 
3 739 738 740 
3 742 741 743 
3 745 744 746 
3 748 747 749 
3 751 750 752 
3 754 753 755 
3 757 756 758 
3 760 759 761 
3 763 762 764 
3 766 765 767 
3 767 768 763 
3 765 193 768 
3 769 191 765 
3 764 770 217 
3 762 187 770 
3 768 194 762 
3 761 771 184 
3 759 217 771 
3 772 764 759 
3 758 773 754 
3 756 220 773 
3 774 182 756 
3 755 775 244 
3 753 178 775 
3 773 221 753 
3 752 776 175 
3 750 244 776 
3 777 755 750 
3 749 778 745 
3 747 247 778 
3 779 173 747 
3 746 780 271 
3 744 169 780 
3 778 248 744 
3 743 781 166 
3 741 271 781 
3 782 746 741 
3 740 783 736 
3 738 274 783 
3 784 164 738 
3 737 785 298 
3 735 160 785 
3 783 275 735 
3 734 786 157 
3 732 298 786 
3 787 737 732 
3 731 788 727 
3 729 301 788 
3 789 155 729 
3 728 790 325 
3 726 151 790 
3 788 302 726 
3 725 791 148 
3 723 325 791 
3 792 728 723 
3 722 793 718 
3 720 328 793 
3 794 146 720 
3 719 795 352 
3 717 142 795 
3 793 329 717 
3 716 796 139 
3 714 352 796 
3 797 719 714 
3 713 798 709 
3 711 355 798 
3 799 137 711 
3 710 800 379 
3 708 133 800 
3 798 356 708 
3 707 801 130 
3 705 379 801 
3 802 710 705 
3 704 803 700 
3 702 382 803 
3 804 128 702 
3 701 805 406 
3 699 124 805 
3 803 383 699 
3 698 806 121 
3 696 406 806 
3 807 701 696 
3 695 808 691 
3 693 409 808 
3 809 119 693 
3 692 810 433 
3 690 115 810 
3 808 410 690 
3 689 811 112 
3 687 433 811 
3 812 692 687 
3 686 813 682 
3 684 436 813 
3 814 110 684 
3 683 815 460 
3 681 106 815 
3 813 437 681 
3 680 816 103 
3 678 460 816 
3 817 683 678 
3 677 818 673 
3 675 463 818 
3 819 101 675 
3 674 820 487 
3 672 97 820 
3 818 464 672 
3 671 821 94 
3 669 487 821 
3 822 674 669 
3 668 823 664 
3 666 490 823 
3 824 92 666 
3 665 825 514 
3 663 88 825 
3 823 491 663 
3 662 826 85 
3 660 514 826 
3 827 665 660 
3 659 828 655 
3 657 517 828 
3 829 83 657 
3 656 830 541 
3 654 79 830 
3 828 518 654 
3 653 831 76 
3 651 541 831 
3 832 656 651 
3 650 833 646 
3 648 544 833 
3 834 74 648 
3 647 835 568 
3 645 70 835 
3 833 545 645 
3 644 836 67 
3 642 568 836 
3 837 647 642 
3 641 838 637 
3 639 571 838 
3 839 65 639 
3 638 840 595 
3 636 61 840 
3 838 572 636 
3 635 841 58 
3 633 595 841 
3 842 638 633 
3 632 843 628 
3 630 598 843 
3 844 56 630 
3 629 845 622 
3 627 52 845 
3 843 599 627 
3 626 846 49 
3 624 622 846 
3 847 629 624 
3 623 848 619 
3 621 607 848 
3 845 53 621 
3 620 839 640 
3 618 64 839 
3 848 608 618 
3 617 849 43 
3 615 640 849 
3 850 620 615 
3 614 851 610 
3 612 292 851 
3 852 158 612 
3 611 853 577 
3 609 13 853 
3 851 293 609 
3 608 854 64 
3 606 577 854 
3 855 611 606 
3 605 856 601 
3 603 733 856 
3 857 11 603 
3 602 852 613 
3 600 157 852 
3 856 734 600 
3 599 858 52 
3 597 613 858 
3 859 602 597 
3 596 860 592 
3 594 580 860 
3 840 62 594 
3 593 829 658 
3 591 82 829 
3 860 581 591 
3 590 861 37 
3 588 658 861 
3 862 593 588 
3 587 863 583 
3 585 319 863 
3 864 149 585 
3 584 865 523 
3 582 7 865 
3 863 320 582 
3 581 866 82 
3 579 523 866 
3 867 584 579 
3 578 868 574 
3 576 724 868 
3 853 14 576 
3 575 864 586 
3 573 148 864 
3 868 725 573 
3 572 869 61 
3 570 586 869 
3 870 575 570 
3 569 871 565 
3 567 553 871 
3 835 71 567 
3 566 774 757 
3 564 181 774 
3 871 554 564 
3 563 872 4 
3 561 757 872 
3 873 566 561 
3 560 874 556 
3 558 589 874 
3 875 59 558 
3 557 876 226 
3 555 37 876 
3 874 590 555 
3 554 877 181 
3 552 226 877 
3 878 557 552 
3 551 879 547 
3 549 634 879 
3 880 44 549 
3 548 875 559 
3 546 58 875 
3 879 635 546 
3 545 881 70 
3 543 559 881 
3 882 548 543 
3 542 883 538 
3 540 526 883 
3 830 80 540 
3 539 824 667 
3 537 91 824 
3 883 527 537 
3 536 884 34 
3 534 667 884 
3 885 539 534 
3 533 886 529 
3 531 265 886 
3 887 167 531 
3 530 888 496 
3 528 22 888 
3 886 266 528 
3 527 889 91 
3 525 496 889 
3 890 530 525 
3 524 891 520 
3 522 742 891 
3 865 8 522 
3 521 887 532 
3 519 166 887 
3 891 743 519 
3 518 892 79 
3 516 532 892 
3 893 521 516 
3 515 894 511 
3 513 499 894 
3 825 89 513 
3 512 895 896 
3 510 897 895 
3 894 500 510 
3 509 898 899 
3 507 896 898 
3 900 512 507 
3 506 901 502 
3 504 400 901 
3 902 122 504 
3 503 903 904 
3 501 905 903 
3 901 401 501 
3 500 906 897 
3 498 904 906 
3 907 503 498 
3 497 908 493 
3 495 697 908 
3 888 23 495 
3 494 902 505 
3 492 121 902 
3 908 698 492 
3 491 909 88 
3 489 505 909 
3 910 494 489 
3 488 911 484 
3 486 472 911 
3 820 98 486 
3 485 912 913 
3 483 914 912 
3 911 473 483 
3 482 915 916 
3 480 913 915 
3 917 485 480 
3 479 918 475 
3 477 508 918 
3 919 86 477 
3 476 920 921 
3 474 899 920 
3 918 509 474 
3 473 922 914 
3 471 921 922 
3 923 476 471 
3 470 924 466 
3 468 661 924 
3 925 35 468 
3 467 919 478 
3 465 85 919 
3 924 662 465 
3 464 926 97 
3 462 478 926 
3 927 467 462 
3 461 928 457 
3 459 445 928 
3 815 107 459 
3 458 809 694 
3 456 118 809 
3 928 446 456 
3 455 929 25 
3 453 694 929 
3 930 458 453 
3 452 931 448 
3 450 932 931 
3 934 933 450 
3 449 935 415 
3 447 936 935 
3 931 937 447 
3 446 938 118 
3 444 415 938 
3 939 449 444 
3 443 940 439 
3 441 941 940 
3 943 942 441 
3 440 934 451 
3 438 944 934 
3 940 945 438 
3 437 946 106 
3 435 451 946 
3 947 440 435 
3 434 948 430 
3 432 418 948 
3 810 116 432 
3 431 949 950 
3 429 951 949 
3 948 419 429 
3 428 952 953 
3 426 950 952 
3 954 431 426 
3 425 955 421 
3 423 956 955 
3 958 957 423 
3 422 959 960 
3 420 961 959 
3 955 962 420 
3 419 963 951 
3 417 960 963 
3 964 422 417 
3 416 965 412 
3 414 966 965 
3 935 967 414 
3 413 958 424 
3 411 968 958 
3 965 969 411 
3 410 970 115 
3 408 424 970 
3 971 413 408 
3 407 972 403 
3 405 391 972 
3 805 125 405 
3 404 973 974 
3 402 975 973 
3 972 392 402 
3 401 976 905 
3 399 974 976 
3 977 404 399 
3 398 978 394 
3 396 427 978 
3 979 113 396 
3 395 980 981 
3 393 953 980 
3 978 428 393 
3 392 982 975 
3 390 981 982 
3 983 395 390 
3 389 984 385 
3 387 688 984 
3 985 26 387 
3 386 979 397 
3 384 112 979 
3 984 689 384 
3 383 986 124 
3 381 397 986 
3 987 386 381 
3 380 988 376 
3 378 364 988 
3 800 134 378 
3 377 794 721 
3 375 145 794 
3 988 365 375 
3 374 989 16 
3 372 721 989 
3 990 377 372 
3 371 991 367 
3 369 992 991 
3 994 993 369 
3 368 995 334 
3 366 996 995 
3 991 997 366 
3 365 998 145 
3 363 334 998 
3 999 368 363 
3 362 1000 358 
3 360 1001 1000 
3 1003 1002 360 
3 359 994 370 
3 357 1004 994 
3 1000 1005 357 
3 356 1006 133 
3 354 370 1006 
3 1007 359 354 
3 353 1008 349 
3 351 337 1008 
3 795 143 351 
3 350 814 685 
3 348 109 814 
3 1008 338 348 
3 347 1009 28 
3 345 685 1009 
3 1010 350 345 
3 344 1011 340 
3 342 1012 1011 
3 1014 1013 342 
3 341 943 442 
3 339 1015 943 
3 1011 1016 339 
3 338 1017 109 
3 336 442 1017 
3 1018 341 336 
3 335 1019 331 
3 333 1020 1019 
3 995 1021 333 
3 332 1014 343 
3 330 1022 1014 
3 1019 1023 330 
3 329 1024 142 
3 327 343 1024 
3 1025 332 327 
3 326 1026 322 
3 324 310 1026 
3 790 152 324 
3 323 779 748 
3 321 172 779 
3 1026 311 321 
3 320 1027 7 
3 318 748 1027 
3 1028 323 318 
3 317 1029 313 
3 315 346 1029 
3 1030 140 315 
3 314 1031 253 
3 312 28 1031 
3 1029 347 312 
3 311 1032 172 
3 309 253 1032 
3 1033 314 309 
3 308 1034 304 
3 306 715 1034 
3 1035 17 306 
3 305 1030 316 
3 303 139 1030 
3 1034 716 303 
3 302 1036 151 
3 300 316 1036 
3 1037 305 300 
3 299 1038 295 
3 297 283 1038 
3 785 161 297 
3 296 789 730 
3 294 154 789 
3 1038 284 294 
3 293 1039 13 
3 291 730 1039 
3 1040 296 291 
3 290 1041 286 
3 288 373 1041 
3 1042 131 288 
3 287 1035 307 
3 285 16 1035 
3 1041 374 285 
3 284 1043 154 
3 282 307 1043 
3 1044 287 282 
3 281 1045 277 
3 279 706 1045 
3 1046 20 279 
3 278 1042 289 
3 276 130 1042 
3 1045 707 276 
3 275 1047 160 
3 273 289 1047 
3 1048 278 273 
3 272 1049 268 
3 270 256 1049 
3 780 170 270 
3 269 804 703 
3 267 127 804 
3 1049 257 267 
3 266 1050 22 
3 264 703 1050 
3 1051 269 264 
3 263 1052 259 
3 261 454 1052 
3 1053 104 261 
3 260 985 388 
3 258 25 985 
3 1052 455 258 
3 257 1054 127 
3 255 388 1054 
3 1055 260 255 
3 254 1056 250 
3 252 679 1056 
3 1031 29 252 
3 251 1053 262 
3 249 103 1053 
3 1056 680 249 
3 248 1057 169 
3 246 262 1057 
3 1058 251 246 
3 245 1059 241 
3 243 229 1059 
3 775 179 243 
3 242 819 676 
3 240 100 819 
3 1059 230 240 
3 239 1060 31 
3 237 676 1060 
3 1061 242 237 
3 236 1062 232 
3 234 535 1062 
3 1063 77 234 
3 233 925 469 
3 231 34 925 
3 1062 536 231 
3 230 1064 100 
3 228 469 1064 
3 1065 233 228 
3 227 1066 223 
3 225 652 1066 
3 876 38 225 
3 224 1063 235 
3 222 76 1063 
3 1066 653 222 
3 221 1067 178 
3 219 235 1067 
3 1068 224 219 
3 218 1069 214 
3 216 202 1069 
3 770 188 216 
3 215 834 649 
3 213 73 834 
3 1069 203 213 
3 212 1070 40 
3 210 649 1070 
3 1071 215 210 
3 209 1072 205 
3 207 616 1072 
3 1073 50 207 
3 206 880 550 
3 204 43 880 
3 1072 617 204 
3 203 1074 73 
3 201 550 1074 
3 1075 206 201 
3 200 1076 196 
3 198 625 1076 
3 1077 47 198 
3 197 1073 208 
3 195 49 1073 
3 1076 626 195 
3 194 1078 187 
3 192 208 1078 
3 1079 197 192 
3 191 1079 193 
3 189 196 1079 
3 1080 200 189 
3 188 1075 202 
3 186 205 1075 
3 1078 209 186 
3 185 1071 211 
3 183 214 1071 
3 771 218 183 
3 182 1068 220 
3 180 223 1068 
3 877 227 180 
3 179 1065 229 
3 177 232 1065 
3 1067 236 177 
3 176 1061 238 
3 174 241 1061 
3 776 245 174 
3 173 1058 247 
3 171 250 1058 
3 1032 254 171 
3 170 1055 256 
3 168 259 1055 
3 1057 263 168 
3 167 1051 265 
3 165 268 1051 
3 781 272 165 
3 164 1048 274 
3 162 277 1048 
3 1081 281 162 
3 161 1044 283 
3 159 286 1044 
3 1047 290 159 
3 158 1040 292 
3 156 295 1040 
3 786 299 156 
3 155 1037 301 
3 153 304 1037 
3 1043 308 153 
3 152 1033 310 
3 150 313 1033 
3 1036 317 150 
3 149 1028 319 
3 147 322 1028 
3 791 326 147 
3 146 1025 328 
3 144 331 1025 
3 998 335 144 
3 143 1018 337 
3 141 340 1018 
3 1024 344 141 
3 140 1010 346 
3 138 349 1010 
3 796 353 138 
3 137 1007 355 
3 135 358 1007 
3 1082 362 135 
3 134 999 364 
3 132 367 999 
3 1006 371 132 
3 131 990 373 
3 129 376 990 
3 801 380 129 
3 128 987 382 
3 126 385 987 
3 1054 389 126 
3 125 983 391 
3 123 394 983 
3 986 398 123 
3 122 977 400 
3 120 403 977 
3 806 407 120 
3 119 971 409 
3 117 412 971 
3 938 416 117 
3 116 964 418 
3 114 421 964 
3 970 425 114 
3 113 954 427 
3 111 430 954 
3 811 434 111 
3 110 947 436 
3 108 439 947 
3 1017 443 108 
3 107 939 445 
3 105 448 939 
3 946 452 105 
3 104 930 454 
3 102 457 930 
3 816 461 102 
3 101 927 463 
3 99 466 927 
3 1064 470 99 
3 98 923 472 
3 96 475 923 
3 926 479 96 
3 95 917 481 
3 93 484 917 
3 821 488 93 
3 92 910 490 
3 90 493 910 
3 889 497 90 
3 89 907 499 
3 87 502 907 
3 909 506 87 
3 86 900 508 
3 84 511 900 
3 826 515 84 
3 83 893 517 
3 81 520 893 
3 866 524 81 
3 80 890 526 
3 78 529 890 
3 892 533 78 
3 77 885 535 
3 75 538 885 
3 831 542 75 
3 74 882 544 
3 72 547 882 
3 1074 551 72 
3 71 878 553 
3 69 556 878 
3 881 560 69 
3 68 873 562 
3 66 565 873 
3 836 569 66 
3 65 870 571 
3 63 574 870 
3 854 578 63 
3 62 867 580 
3 60 583 867 
3 869 587 60 
3 59 862 589 
3 57 592 862 
3 841 596 57 
3 56 859 598 
3 54 601 859 
3 1083 605 54 
3 53 855 607 
3 51 610 855 
3 858 614 51 
3 50 850 616 
3 48 619 850 
3 846 623 48 
3 47 847 625 
3 45 628 847 
3 1084 632 45 
3 44 842 634 
3 42 637 842 
3 849 641 42 
3 41 837 643 
3 39 646 837 
3 1070 650 39 
3 38 832 652 
3 36 655 832 
3 861 659 36 
3 35 827 661 
3 33 664 827 
3 884 668 33 
3 32 822 670 
3 30 673 822 
3 1060 677 30 
3 29 817 679 
3 27 682 817 
3 1009 686 27 
3 26 812 688 
3 24 691 812 
3 929 695 24 
3 23 807 697 
3 21 700 807 
3 1050 704 21 
3 20 802 706 
3 18 709 802 
3 1085 713 18 
3 17 797 715 
3 15 718 797 
3 989 722 15 
3 14 792 724 
3 12 727 792 
3 1039 731 12 
3 11 787 733 
3 9 736 787 
3 1086 740 9 
3 8 782 742 
3 6 745 782 
3 1027 749 6 
3 5 777 751 
3 3 754 777 
3 872 758 3 
3 2 772 760 
3 0 763 772 
3 1087 767 0 
3 1087 0 1 
3 872 3 4 
3 1027 6 7 
3 1086 9 10 
3 1039 12 13 
3 989 15 16 
3 1085 18 19 
3 1050 21 22 
3 929 24 25 
3 1009 27 28 
3 1060 30 31 
3 884 33 34 
3 861 36 37 
3 1070 39 40 
3 849 42 43 
3 1084 45 46 
3 846 48 49 
3 858 51 52 
3 1083 54 55 
3 841 57 58 
3 869 60 61 
3 854 63 64 
3 836 66 67 
3 881 69 70 
3 1074 72 73 
3 831 75 76 
3 892 78 79 
3 866 81 82 
3 826 84 85 
3 909 87 88 
3 889 90 91 
3 821 93 94 
3 926 96 97 
3 1064 99 100 
3 816 102 103 
3 946 105 106 
3 1017 108 109 
3 811 111 112 
3 970 114 115 
3 938 117 118 
3 806 120 121 
3 986 123 124 
3 1054 126 127 
3 801 129 130 
3 1006 132 133 
3 1082 135 136 
3 796 138 139 
3 1024 141 142 
3 998 144 145 
3 791 147 148 
3 1036 150 151 
3 1043 153 154 
3 786 156 157 
3 1047 159 160 
3 1081 162 163 
3 781 165 166 
3 1057 168 169 
3 1032 171 172 
3 776 174 175 
3 1067 177 178 
3 877 180 181 
3 771 183 184 
3 1078 186 187 
3 1080 189 190 
3 1079 192 193 
3 1076 195 196 
3 1077 198 199 
3 1075 201 202 
3 1072 204 205 
3 1073 207 208 
3 1071 210 211 
3 1069 213 214 
3 770 216 217 
3 1068 219 220 
3 1066 222 223 
3 876 225 226 
3 1065 228 229 
3 1062 231 232 
3 1063 234 235 
3 1061 237 238 
3 1059 240 241 
3 775 243 244 
3 1058 246 247 
3 1056 249 250 
3 1031 252 253 
3 1055 255 256 
3 1052 258 259 
3 1053 261 262 
3 1051 264 265 
3 1049 267 268 
3 780 270 271 
3 1048 273 274 
3 1045 276 277 
3 1046 279 280 
3 1044 282 283 
3 1041 285 286 
3 1042 288 289 
3 1040 291 292 
3 1038 294 295 
3 785 297 298 
3 1037 300 301 
3 1034 303 304 
3 1035 306 307 
3 1033 309 310 
3 1029 312 313 
3 1030 315 316 
3 1028 318 319 
3 1026 321 322 
3 790 324 325 
3 1025 327 328 
3 1019 330 331 
3 995 333 334 
3 1018 336 337 
3 1011 339 340 
3 1014 342 343 
3 1010 345 346 
3 1008 348 349 
3 795 351 352 
3 1007 354 355 
3 1000 357 358 
3 1003 360 361 
3 999 363 364 
3 991 366 367 
3 994 369 370 
3 990 372 373 
3 988 375 376 
3 800 378 379 
3 987 381 382 
3 984 384 385 
3 985 387 388 
3 983 390 391 
3 978 393 394 
3 979 396 397 
3 977 399 400 
3 972 402 403 
3 805 405 406 
3 971 408 409 
3 965 411 412 
3 935 414 415 
3 964 417 418 
3 955 420 421 
3 958 423 424 
3 954 426 427 
3 948 429 430 
3 810 432 433 
3 947 435 436 
3 940 438 439 
3 943 441 442 
3 939 444 445 
3 931 447 448 
3 934 450 451 
3 930 453 454 
3 928 456 457 
3 815 459 460 
3 927 462 463 
3 924 465 466 
3 925 468 469 
3 923 471 472 
3 918 474 475 
3 919 477 478 
3 917 480 481 
3 911 483 484 
3 820 486 487 
3 910 489 490 
3 908 492 493 
3 888 495 496 
3 907 498 499 
3 901 501 502 
3 902 504 505 
3 900 507 508 
3 894 510 511 
3 825 513 514 
3 893 516 517 
3 891 519 520 
3 865 522 523 
3 890 525 526 
3 886 528 529 
3 887 531 532 
3 885 534 535 
3 883 537 538 
3 830 540 541 
3 882 543 544 
3 879 546 547 
3 880 549 550 
3 878 552 553 
3 874 555 556 
3 875 558 559 
3 873 561 562 
3 871 564 565 
3 835 567 568 
3 870 570 571 
3 868 573 574 
3 853 576 577 
3 867 579 580 
3 863 582 583 
3 864 585 586 
3 862 588 589 
3 860 591 592 
3 840 594 595 
3 859 597 598 
3 856 600 601 
3 857 603 604 
3 855 606 607 
3 851 609 610 
3 852 612 613 
3 850 615 616 
3 848 618 619 
3 845 621 622 
3 847 624 625 
3 843 627 628 
3 844 630 631 
3 842 633 634 
3 838 636 637 
3 839 639 640 
3 837 642 643 
3 833 645 646 
3 834 648 649 
3 832 651 652 
3 828 654 655 
3 829 657 658 
3 827 660 661 
3 823 663 664 
3 824 666 667 
3 822 669 670 
3 818 672 673 
3 819 675 676 
3 817 678 679 
3 813 681 682 
3 814 684 685 
3 812 687 688 
3 808 690 691 
3 809 693 694 
3 807 696 697 
3 803 699 700 
3 804 702 703 
3 802 705 706 
3 798 708 709 
3 799 711 712 
3 797 714 715 
3 793 717 718 
3 794 720 721 
3 792 723 724 
3 788 726 727 
3 789 729 730 
3 787 732 733 
3 783 735 736 
3 784 738 739 
3 782 741 742 
3 778 744 745 
3 779 747 748 
3 777 750 751 
3 773 753 754 
3 774 756 757 
3 772 759 760 
3 768 762 763 
3 769 765 766 
3 765 768 767 
3 191 193 765 
3 190 191 769 
3 762 770 764 
3 194 187 762 
3 193 194 768 
3 759 771 761 
3 764 217 759 
3 763 764 772 
3 756 773 758 
3 182 220 756 
3 181 182 774 
3 753 775 755 
3 221 178 753 
3 220 221 773 
3 750 776 752 
3 755 244 750 
3 754 755 777 
3 747 778 749 
3 173 247 747 
3 172 173 779 
3 744 780 746 
3 248 169 744 
3 247 248 778 
3 741 781 743 
3 746 271 741 
3 745 746 782 
3 738 783 740 
3 164 274 738 
3 163 164 784 
3 735 785 737 
3 275 160 735 
3 274 275 783 
3 732 786 734 
3 737 298 732 
3 736 737 787 
3 729 788 731 
3 155 301 729 
3 154 155 789 
3 726 790 728 
3 302 151 726 
3 301 302 788 
3 723 791 725 
3 728 325 723 
3 727 728 792 
3 720 793 722 
3 146 328 720 
3 145 146 794 
3 717 795 719 
3 329 142 717 
3 328 329 793 
3 714 796 716 
3 719 352 714 
3 718 719 797 
3 711 798 713 
3 137 355 711 
3 136 137 799 
3 708 800 710 
3 356 133 708 
3 355 356 798 
3 705 801 707 
3 710 379 705 
3 709 710 802 
3 702 803 704 
3 128 382 702 
3 127 128 804 
3 699 805 701 
3 383 124 699 
3 382 383 803 
3 696 806 698 
3 701 406 696 
3 700 701 807 
3 693 808 695 
3 119 409 693 
3 118 119 809 
3 690 810 692 
3 410 115 690 
3 409 410 808 
3 687 811 689 
3 692 433 687 
3 691 692 812 
3 684 813 686 
3 110 436 684 
3 109 110 814 
3 681 815 683 
3 437 106 681 
3 436 437 813 
3 678 816 680 
3 683 460 678 
3 682 683 817 
3 675 818 677 
3 101 463 675 
3 100 101 819 
3 672 820 674 
3 464 97 672 
3 463 464 818 
3 669 821 671 
3 674 487 669 
3 673 674 822 
3 666 823 668 
3 92 490 666 
3 91 92 824 
3 663 825 665 
3 491 88 663 
3 490 491 823 
3 660 826 662 
3 665 514 660 
3 664 665 827 
3 657 828 659 
3 83 517 657 
3 82 83 829 
3 654 830 656 
3 518 79 654 
3 517 518 828 
3 651 831 653 
3 656 541 651 
3 655 656 832 
3 648 833 650 
3 74 544 648 
3 73 74 834 
3 645 835 647 
3 545 70 645 
3 544 545 833 
3 642 836 644 
3 647 568 642 
3 646 647 837 
3 639 838 641 
3 65 571 639 
3 64 65 839 
3 636 840 638 
3 572 61 636 
3 571 572 838 
3 633 841 635 
3 638 595 633 
3 637 638 842 
3 630 843 632 
3 56 598 630 
3 55 56 844 
3 627 845 629 
3 599 52 627 
3 598 599 843 
3 624 846 626 
3 629 622 624 
3 628 629 847 
3 621 848 623 
3 53 607 621 
3 52 53 845 
3 618 839 620 
3 608 64 618 
3 607 608 848 
3 615 849 617 
3 620 640 615 
3 619 620 850 
3 612 851 614 
3 158 292 612 
3 157 158 852 
3 609 853 611 
3 293 13 609 
3 292 293 851 
3 606 854 608 
3 611 577 606 
3 610 611 855 
3 603 856 605 
3 11 733 603 
3 10 11 857 
3 600 852 602 
3 734 157 600 
3 733 734 856 
3 597 858 599 
3 602 613 597 
3 601 602 859 
3 594 860 596 
3 62 580 594 
3 61 62 840 
3 591 829 593 
3 581 82 591 
3 580 581 860 
3 588 861 590 
3 593 658 588 
3 592 593 862 
3 585 863 587 
3 149 319 585 
3 148 149 864 
3 582 865 584 
3 320 7 582 
3 319 320 863 
3 579 866 581 
3 584 523 579 
3 583 584 867 
3 576 868 578 
3 14 724 576 
3 13 14 853 
3 573 864 575 
3 725 148 573 
3 724 725 868 
3 570 869 572 
3 575 586 570 
3 574 575 870 
3 567 871 569 
3 71 553 567 
3 70 71 835 
3 564 774 566 
3 554 181 564 
3 553 554 871 
3 561 872 563 
3 566 757 561 
3 565 566 873 
3 558 874 560 
3 59 589 558 
3 58 59 875 
3 555 876 557 
3 590 37 555 
3 589 590 874 
3 552 877 554 
3 557 226 552 
3 556 557 878 
3 549 879 551 
3 44 634 549 
3 43 44 880 
3 546 875 548 
3 635 58 546 
3 634 635 879 
3 543 881 545 
3 548 559 543 
3 547 548 882 
3 540 883 542 
3 80 526 540 
3 79 80 830 
3 537 824 539 
3 527 91 537 
3 526 527 883 
3 534 884 536 
3 539 667 534 
3 538 539 885 
3 531 886 533 
3 167 265 531 
3 166 167 887 
3 528 888 530 
3 266 22 528 
3 265 266 886 
3 525 889 527 
3 530 496 525 
3 529 530 890 
3 522 891 524 
3 8 742 522 
3 7 8 865 
3 519 887 521 
3 743 166 519 
3 742 743 891 
3 516 892 518 
3 521 532 516 
3 520 521 893 
3 513 894 515 
3 89 499 513 
3 88 89 825 
3 510 895 512 
3 500 897 510 
3 499 500 894 
3 507 898 509 
3 512 896 507 
3 511 512 900 
3 504 901 506 
3 122 400 504 
3 121 122 902 
3 501 903 503 
3 401 905 501 
3 400 401 901 
3 498 906 500 
3 503 904 498 
3 502 503 907 
3 495 908 497 
3 23 697 495 
3 22 23 888 
3 492 902 494 
3 698 121 492 
3 697 698 908 
3 489 909 491 
3 494 505 489 
3 493 494 910 
3 486 911 488 
3 98 472 486 
3 97 98 820 
3 483 912 485 
3 473 914 483 
3 472 473 911 
3 480 915 482 
3 485 913 480 
3 484 485 917 
3 477 918 479 
3 86 508 477 
3 85 86 919 
3 474 920 476 
3 509 899 474 
3 508 509 918 
3 471 922 473 
3 476 921 471 
3 475 476 923 
3 468 924 470 
3 35 661 468 
3 34 35 925 
3 465 919 467 
3 662 85 465 
3 661 662 924 
3 462 926 464 
3 467 478 462 
3 466 467 927 
3 459 928 461 
3 107 445 459 
3 106 107 815 
3 456 809 458 
3 446 118 456 
3 445 446 928 
3 453 929 455 
3 458 694 453 
3 457 458 930 
3 450 931 452 
3 933 932 450 
3 944 933 934 
3 447 935 449 
3 937 936 447 
3 932 937 931 
3 444 938 446 
3 449 415 444 
3 448 449 939 
3 441 940 443 
3 942 941 441 
3 1015 942 943 
3 438 934 440 
3 945 944 438 
3 941 945 940 
3 435 946 437 
3 440 451 435 
3 439 440 947 
3 432 948 434 
3 116 418 432 
3 115 116 810 
3 429 949 431 
3 419 951 429 
3 418 419 948 
3 426 952 428 
3 431 950 426 
3 430 431 954 
3 423 955 425 
3 957 956 423 
3 968 957 958 
3 420 959 422 
3 962 961 420 
3 956 962 955 
3 417 963 419 
3 422 960 417 
3 421 422 964 
3 414 965 416 
3 967 966 414 
3 936 967 935 
3 411 958 413 
3 969 968 411 
3 966 969 965 
3 408 970 410 
3 413 424 408 
3 412 413 971 
3 405 972 407 
3 125 391 405 
3 124 125 805 
3 402 973 404 
3 392 975 402 
3 391 392 972 
3 399 976 401 
3 404 974 399 
3 403 404 977 
3 396 978 398 
3 113 427 396 
3 112 113 979 
3 393 980 395 
3 428 953 393 
3 427 428 978 
3 390 982 392 
3 395 981 390 
3 394 395 983 
3 387 984 389 
3 26 688 387 
3 25 26 985 
3 384 979 386 
3 689 112 384 
3 688 689 984 
3 381 986 383 
3 386 397 381 
3 385 386 987 
3 378 988 380 
3 134 364 378 
3 133 134 800 
3 375 794 377 
3 365 145 375 
3 364 365 988 
3 372 989 374 
3 377 721 372 
3 376 377 990 
3 369 991 371 
3 993 992 369 
3 1004 993 994 
3 366 995 368 
3 997 996 366 
3 992 997 991 
3 363 998 365 
3 368 334 363 
3 367 368 999 
3 360 1000 362 
3 1002 1001 360 
3 1088 1002 1003 
3 357 994 359 
3 1005 1004 357 
3 1001 1005 1000 
3 354 1006 356 
3 359 370 354 
3 358 359 1007 
3 351 1008 353 
3 143 337 351 
3 142 143 795 
3 348 814 350 
3 338 109 348 
3 337 338 1008 
3 345 1009 347 
3 350 685 345 
3 349 350 1010 
3 342 1011 344 
3 1013 1012 342 
3 1022 1013 1014 
3 339 943 341 
3 1016 1015 339 
3 1012 1016 1011 
3 336 1017 338 
3 341 442 336 
3 340 341 1018 
3 333 1019 335 
3 1021 1020 333 
3 996 1021 995 
3 330 1014 332 
3 1023 1022 330 
3 1020 1023 1019 
3 327 1024 329 
3 332 343 327 
3 331 332 1025 
3 324 1026 326 
3 152 310 324 
3 151 152 790 
3 321 779 323 
3 311 172 321 
3 310 311 1026 
3 318 1027 320 
3 323 748 318 
3 322 323 1028 
3 315 1029 317 
3 140 346 315 
3 139 140 1030 
3 312 1031 314 
3 347 28 312 
3 346 347 1029 
3 309 1032 311 
3 314 253 309 
3 313 314 1033 
3 306 1034 308 
3 17 715 306 
3 16 17 1035 
3 303 1030 305 
3 716 139 303 
3 715 716 1034 
3 300 1036 302 
3 305 316 300 
3 304 305 1037 
3 297 1038 299 
3 161 283 297 
3 160 161 785 
3 294 789 296 
3 284 154 294 
3 283 284 1038 
3 291 1039 293 
3 296 730 291 
3 295 296 1040 
3 288 1041 290 
3 131 373 288 
3 130 131 1042 
3 285 1035 287 
3 374 16 285 
3 373 374 1041 
3 282 1043 284 
3 287 307 282 
3 286 287 1044 
3 279 1045 281 
3 20 706 279 
3 19 20 1046 
3 276 1042 278 
3 707 130 276 
3 706 707 1045 
3 273 1047 275 
3 278 289 273 
3 277 278 1048 
3 270 1049 272 
3 170 256 270 
3 169 170 780 
3 267 804 269 
3 257 127 267 
3 256 257 1049 
3 264 1050 266 
3 269 703 264 
3 268 269 1051 
3 261 1052 263 
3 104 454 261 
3 103 104 1053 
3 258 985 260 
3 455 25 258 
3 454 455 1052 
3 255 1054 257 
3 260 388 255 
3 259 260 1055 
3 252 1056 254 
3 29 679 252 
3 28 29 1031 
3 249 1053 251 
3 680 103 249 
3 679 680 1056 
3 246 1057 248 
3 251 262 246 
3 250 251 1058 
3 243 1059 245 
3 179 229 243 
3 178 179 775 
3 240 819 242 
3 230 100 240 
3 229 230 1059 
3 237 1060 239 
3 242 676 237 
3 241 242 1061 
3 234 1062 236 
3 77 535 234 
3 76 77 1063 
3 231 925 233 
3 536 34 231 
3 535 536 1062 
3 228 1064 230 
3 233 469 228 
3 232 233 1065 
3 225 1066 227 
3 38 652 225 
3 37 38 876 
3 222 1063 224 
3 653 76 222 
3 652 653 1066 
3 219 1067 221 
3 224 235 219 
3 223 224 1068 
3 216 1069 218 
3 188 202 216 
3 187 188 770 
3 213 834 215 
3 203 73 213 
3 202 203 1069 
3 210 1070 212 
3 215 649 210 
3 214 215 1071 
3 207 1072 209 
3 50 616 207 
3 49 50 1073 
3 204 880 206 
3 617 43 204 
3 616 617 1072 
3 201 1074 203 
3 206 550 201 
3 205 206 1075 
3 198 1076 200 
3 47 625 198 
3 46 47 1077 
3 195 1073 197 
3 626 49 195 
3 625 626 1076 
3 192 1078 194 
3 197 208 192 
3 196 197 1079 
3 189 1079 191 
3 200 196 189 
3 199 200 1080 
3 186 1075 188 
3 209 205 186 
3 208 209 1078 
3 183 1071 185 
3 218 214 183 
3 217 218 771 
3 180 1068 182 
3 227 223 180 
3 226 227 877 
3 177 1065 179 
3 236 232 177 
3 235 236 1067 
3 174 1061 176 
3 245 241 174 
3 244 245 776 
3 171 1058 173 
3 254 250 171 
3 253 254 1032 
3 168 1055 170 
3 263 259 168 
3 262 263 1057 
3 165 1051 167 
3 272 268 165 
3 271 272 781 
3 162 1048 164 
3 281 277 162 
3 280 281 1081 
3 159 1044 161 
3 290 286 159 
3 289 290 1047 
3 156 1040 158 
3 299 295 156 
3 298 299 786 
3 153 1037 155 
3 308 304 153 
3 307 308 1043 
3 150 1033 152 
3 317 313 150 
3 316 317 1036 
3 147 1028 149 
3 326 322 147 
3 325 326 791 
3 144 1025 146 
3 335 331 144 
3 334 335 998 
3 141 1018 143 
3 344 340 141 
3 343 344 1024 
3 138 1010 140 
3 353 349 138 
3 352 353 796 
3 135 1007 137 
3 362 358 135 
3 361 362 1082 
3 132 999 134 
3 371 367 132 
3 370 371 1006 
3 129 990 131 
3 380 376 129 
3 379 380 801 
3 126 987 128 
3 389 385 126 
3 388 389 1054 
3 123 983 125 
3 398 394 123 
3 397 398 986 
3 120 977 122 
3 407 403 120 
3 406 407 806 
3 117 971 119 
3 416 412 117 
3 415 416 938 
3 114 964 116 
3 425 421 114 
3 424 425 970 
3 111 954 113 
3 434 430 111 
3 433 434 811 
3 108 947 110 
3 443 439 108 
3 442 443 1017 
3 105 939 107 
3 452 448 105 
3 451 452 946 
3 102 930 104 
3 461 457 102 
3 460 461 816 
3 99 927 101 
3 470 466 99 
3 469 470 1064 
3 96 923 98 
3 479 475 96 
3 478 479 926 
3 93 917 95 
3 488 484 93 
3 487 488 821 
3 90 910 92 
3 497 493 90 
3 496 497 889 
3 87 907 89 
3 506 502 87 
3 505 506 909 
3 84 900 86 
3 515 511 84 
3 514 515 826 
3 81 893 83 
3 524 520 81 
3 523 524 866 
3 78 890 80 
3 533 529 78 
3 532 533 892 
3 75 885 77 
3 542 538 75 
3 541 542 831 
3 72 882 74 
3 551 547 72 
3 550 551 1074 
3 69 878 71 
3 560 556 69 
3 559 560 881 
3 66 873 68 
3 569 565 66 
3 568 569 836 
3 63 870 65 
3 578 574 63 
3 577 578 854 
3 60 867 62 
3 587 583 60 
3 586 587 869 
3 57 862 59 
3 596 592 57 
3 595 596 841 
3 54 859 56 
3 605 601 54 
3 604 605 1083 
3 51 855 53 
3 614 610 51 
3 613 614 858 
3 48 850 50 
3 623 619 48 
3 622 623 846 
3 45 847 47 
3 632 628 45 
3 631 632 1084 
3 42 842 44 
3 641 637 42 
3 640 641 849 
3 39 837 41 
3 650 646 39 
3 649 650 1070 
3 36 832 38 
3 659 655 36 
3 658 659 861 
3 33 827 35 
3 668 664 33 
3 667 668 884 
3 30 822 32 
3 677 673 30 
3 676 677 1060 
3 27 817 29 
3 686 682 27 
3 685 686 1009 
3 24 812 26 
3 695 691 24 
3 694 695 929 
3 21 807 23 
3 704 700 21 
3 703 704 1050 
3 18 802 20 
3 713 709 18 
3 712 713 1085 
3 15 797 17 
3 722 718 15 
3 721 722 989 
3 12 792 14 
3 731 727 12 
3 730 731 1039 
3 9 787 11 
3 740 736 9 
3 739 740 1086 
3 6 782 8 
3 749 745 6 
3 748 749 1027 
3 3 777 5 
3 758 754 3 
3 757 758 872 
3 0 772 2 
3 767 763 0 
3 766 767 1087 
